<svg id="Capa_1" enable-background="new 0 0 512 512" height="512" viewBox="0 0 512 512" width="512" xmlns="http://www.w3.org/2000/svg"><g><path d="m504.5 408.9c4.143 0 7.5-3.358 7.5-7.5v-191.04c0-26.578-21.622-48.2-48.2-48.2h-113.96v-113.96c0-26.578-21.622-48.2-48.2-48.2h-197.96c-4.143 0-7.5 3.358-7.5 7.5s3.357 7.5 7.5 7.5h197.96c18.307 0 33.2 14.894 33.2 33.2v113.96h-124.48c-26.578 0-48.2 21.622-48.2 48.2v124.48h-113.96c-18.307 0-33.2-14.894-33.2-33.2v-253.44c0-18.306 14.894-33.2 33.2-33.2h25.48c4.143 0 7.5-3.358 7.5-7.5s-3.358-7.5-7.5-7.5h-25.48c-26.578 0-48.2 21.623-48.2 48.2v253.44c0 26.578 21.622 48.2 48.2 48.2h113.96v113.96c0 26.578 21.622 48.2 48.2 48.2h253.44c26.578 0 48.2-21.623 48.2-48.2v-32.4c0-4.142-3.357-7.5-7.5-7.5s-7.5 3.358-7.5 7.5v32.4c0 18.307-14.894 33.2-33.2 33.2h-253.44c-18.307 0-33.2-14.894-33.2-33.2v-113.96h124.48c26.578 0 48.2-21.622 48.2-48.2v-124.48h113.96c18.307 0 33.2 14.894 33.2 33.2v191.04c0 4.142 3.357 7.5 7.5 7.5zm-169.66-107.26c0 18.306-14.894 33.2-33.2 33.2h-124.48v-124.48c0-18.306 14.894-33.2 33.2-33.2h124.48z"/></g></svg>